<?xml version="1.0" standalone="no"?><!DOCTYPE svg PUBLIC "-//W3C//DTD SVG 1.1//EN" "http://www.w3.org/Graphics/SVG/1.1/DTD/svg11.dtd"><svg t="1713428399938" class="icon" viewBox="0 0 1024 1024" version="1.1" xmlns="http://www.w3.org/2000/svg" p-id="11828" xmlns:xlink="http://www.w3.org/1999/xlink" width="200" height="200"><path d="M832 64c17.673 0 32 14.327 32 32v672L672 960H192c-17.673 0-32-14.327-32-32V96c0-17.673 14.327-32 32-32h640z m-40 72H232v752h368V728c0-17.673 14.327-32 32-32h160V136z m-29.824 632H672v90.176L762.176 768zM712 512a8 8 0 0 1 8 8v56a8 8 0 0 1-8 8H312a8 8 0 0 1-8-8v-56a8 8 0 0 1 8-8h400zM432 240c17.673 0 32 14.327 32 32v144c0 17.673-14.327 32-32 32h-96c-17.673 0-32-14.327-32-32V272c0-17.673 14.327-32 32-32h96z m280 136a8 8 0 0 1 8 8v56a8 8 0 0 1-8 8H536a8 8 0 0 1-8-8v-56a8 8 0 0 1 8-8h176z m0-136a8 8 0 0 1 8 8v56a8 8 0 0 1-8 8H536a8 8 0 0 1-8-8v-56a8 8 0 0 1 8-8h176z" fill="#5090F1" p-id="11829"></path></svg>